<?xml version="1.0" encoding="utf-8"?>
<!-- Generator: Adobe Illustrator 16.0.0, SVG Export Plug-In . SVG Version: 6.00 Build 0)  -->
<!DOCTYPE svg PUBLIC "-//W3C//DTD SVG 1.1//EN" "http://www.w3.org/Graphics/SVG/1.1/DTD/svg11.dtd">
<svg version="1.1" id="Layer_1" xmlns="http://www.w3.org/2000/svg" xmlns:xlink="http://www.w3.org/1999/xlink" x="0px" y="0px"
	 width="75px" height="61px" viewBox="0 0 75 61" enable-background="new 0 0 75 61" xml:space="preserve">
<path fill-rule="evenodd" clip-rule="evenodd" d="M40.121,25.656c0.103,0,0.191,0,0.279,0c1.893,0,3.784,0,5.677,0
	c0.289,0,0.339,0.074,0.281,0.354c-0.049,0.234-0.071,0.474-0.1,0.71c-0.043,0.363-0.081,0.726-0.121,1.085
	c-0.006,0.052,0,0.108-0.007,0.16c-0.039,0.366-0.08,0.731-0.12,1.098c-0.005,0.043-0.001,0.086-0.005,0.126
	c-0.041,0.378-0.082,0.756-0.122,1.134c-0.004,0.034,0,0.074-0.004,0.108c-0.041,0.366-0.082,0.731-0.122,1.098
	c-0.004,0.031-0.004,0.061-0.003,0.092c0.014,0.394-0.035,0.778-0.123,1.163c-0.055,0.236-0.048,0.24-0.292,0.24
	c-1.672,0-3.342,0-5.014,0c-0.214,0-0.215,0-0.215,0.211c0,6.891,0,13.78,0,20.671c0,0.052,0.004,0.107-0.002,0.159
	c-0.012,0.114-0.057,0.185-0.197,0.185c-2.633-0.003-5.267-0.003-7.899-0.003c-0.206,0-0.262-0.064-0.262-0.295
	c0-6.844,0-13.685,0-20.529c0-0.052,0-0.104,0-0.156c-0.001-0.242-0.001-0.242-0.236-0.242c-1.188,0-2.376,0-3.563,0
	c-0.048,0-0.095,0.002-0.142-0.004c-0.119-0.016-0.189-0.058-0.189-0.206c0.004-2.309,0.003-4.615,0.004-6.924
	c0-0.197,0.035-0.234,0.238-0.234c1.23-0.003,2.459-0.003,3.689,0.003c0.164,0,0.201-0.052,0.201-0.206
	c-0.005-1.39-0.008-2.776,0-4.164c0.002-0.417,0.038-0.834,0.06-1.253c0.013-0.233,0.02-0.467,0.045-0.701
	c0.021-0.185,0.067-0.366,0.098-0.55c0.013-0.077,0.012-0.155,0.025-0.231c0.033-0.183,0.072-0.363,0.108-0.544
	c0.005-0.026,0.018-0.051,0.015-0.075c-0.015-0.172,0.073-0.318,0.107-0.475c0.04-0.177,0.078-0.348,0.143-0.518
	c0.078-0.203,0.128-0.417,0.207-0.62c0.094-0.245,0.194-0.486,0.313-0.719c0.094-0.185,0.226-0.349,0.328-0.529
	c0.199-0.351,0.456-0.657,0.725-0.953c0.14-0.152,0.289-0.301,0.449-0.431c0.267-0.215,0.537-0.427,0.823-0.615
	c0.217-0.142,0.46-0.248,0.695-0.363c0.217-0.104,0.433-0.215,0.658-0.298c0.251-0.092,0.512-0.162,0.771-0.233
	c0.269-0.076,0.539-0.146,0.813-0.211c0.136-0.032,0.275-0.055,0.416-0.067c0.436-0.037,0.872-0.069,1.309-0.102
	c0.26-0.019,0.519-0.048,0.778-0.048c1.798-0.004,3.595-0.003,5.392-0.003c0.279,0,0.332,0.052,0.332,0.329
	c0,2.212-0.001,4.426,0.001,6.638c0,0.337-0.108,0.401-0.393,0.4c-1.267-0.003-2.532-0.003-3.8,0.007
	c-0.215,0.002-0.436,0.042-0.643,0.103c-0.215,0.065-0.42,0.168-0.622,0.269c-0.299,0.149-0.472,0.415-0.583,0.713
	c-0.207,0.552-0.213,1.133-0.212,1.712c0.001,1.2,0.001,2.396,0.002,3.595C40.112,25.555,40.117,25.592,40.121,25.656z">

	<animateTransform attributeName="transform"
	attributeType="xml"
	type="rotate"
	from="0 50 50"
	to="80 50 50"
	dur="1s"
	repeatCount="1"/>

</path>
</svg>
